<svg width="600" height="600" viewBox="0 0 600 600" fill="none" xmlns="http://www.w3.org/2000/svg">
<rect width="600" height="600" rx="45" fill="#122B45"/>
<path d="M110 199.085C110 176.994 127.909 159.085 150 159.085H154C176.091 159.085 194 176.994 194 199.085V474.085H110V199.085Z" fill="white"/>
<path d="M479 270.085V474.085H395V350.383L479 270.085Z" fill="white"/>
<path d="M121.284 228.767C105.663 213.146 105.663 187.819 121.284 172.198L124.113 169.37C139.734 153.749 165.06 153.749 180.681 169.37L344.478 333.166L313.365 364.279C297.744 379.9 272.417 379.9 256.796 364.279L121.284 228.767Z" fill="white"/>
<path d="M487.527 233.278L465.834 211.585L345.081 332.337C329.46 347.958 304.134 347.958 288.513 332.337L257.4 301.224L406.437 152.188L384.036 129.788L490.569 126.745L487.527 233.278Z" fill="white"/>
</svg>
