<svg width="652" height="652" viewBox="0 0 652 652" fill="none" xmlns="http://www.w3.org/2000/svg">
<rect width="652" height="652" rx="55" fill="#122B45"/>
<path d="M102.289 234.018C102.289 207.653 123.662 186.28 150.027 186.28H154.801C181.166 186.28 202.539 207.653 202.539 234.018V562.218H102.289V234.018Z" fill="white"/>
<path d="M548.64 318.753V562.218H448.39V414.585L548.64 318.753Z" fill="white"/>
<path d="M115.756 269.441C97.1131 250.798 97.1131 220.572 115.756 201.929L119.132 198.554C137.774 179.911 168.001 179.911 186.643 198.554L382.127 394.037L344.995 431.169C326.352 449.812 296.126 449.812 277.483 431.169L115.756 269.441Z" fill="white"/>
<path d="M549.716 283.117L521.247 254.647L382.847 393.048C364.204 411.69 333.978 411.691 315.335 393.048L278.203 355.916L450.359 183.76L426.205 159.605L550.796 158.526L549.716 283.117Z" fill="white"/>
<circle cx="152.414" cy="114.673" r="59.6727" fill="white"/>
</svg>
